<svg x="0" y="0" width="48" height="48" version="1.1" xmlns="http://www.w3.org/2000/svg" xmlns:xlink="http://www.w3.org/1999/xlink"><defs><linearGradient x1="9.32131" y1="13.04589" x2="55.1551" y2="56.48331" gradientUnits="userSpaceOnUse" id="color-1"><stop offset="0" stop-color="#000000" stop-opacity="0.7"></stop><stop offset="1" stop-color="#000000" stop-opacity="0"></stop></linearGradient><filter id="dropshadow"><feColorMatrix type="matrix" values="0 0 0 0 .05  0 0 0 0 .15  0 0 0 0 .1  0 0 0 .8 0"></feColorMatrix> <feOffset dx="0" dy="1"></feOffset> <feGaussianBlur stdDeviation="1"></feGaussianBlur> <feComposite in="SourceGraphic"></feComposite></filter></defs><g fill="none" stroke="none" stroke-width="none" stroke-linecap="butt" stroke-linejoin="miter" stroke-miterlimit="none" stroke-dasharray="" stroke-dashoffset="0" font-family="none" font-weight="none" font-size="none" text-anchor="start" mix-blend-mode="normal"><g fill="#000000" stroke="none" stroke-width="1" stroke-miterlimit="4" font-family="&quot;Open Sans&quot;, sans-serif" font-weight="400" font-size="14"></g><path d="M3,24c0,-11.59798 9.40202,-21 21,-21c11.59798,0 21,9.40202 21,21c0,11.59798 -9.40202,21 -21,21c-11.59798,0 -21,-9.40202 -21,-21z" fill="#f72484" stroke-width="1" stroke-miterlimit="10" font-family="sans-serif" font-weight="normal" font-size="12" filter="url(#dropshadow)"></path><path d="M28.43556,44.53069l-19.08416,-19.08416c-0.02385,-0.02385 -0.03583,-0.05897 -0.02739,-0.11284c0.02559,-0.16292 0.15051,-0.07754 0.19028,-0.1989l0.58279,-0.20271l1.07737,1.07737l0.00001,0l-1.07738,-1.07738c0.05067,-0.12618 0.06994,-0.07247 0.168,-0.12593l0.00001,0.00001c0.11073,-0.06004 0.04155,-0.0745 0.23741,-0.07678c0,0 1.56838,1.56838 1.56838,1.56838c0,0 0.00001,0 0.00001,0l-1.56839,-1.56839c0.04383,-0.12492 0.0717,-0.07373 0.168,-0.12593l0.00001,0.00001c0.11073,-0.05979 0.04105,-0.0745 0.23741,-0.07678l2.06148,2.06148c0,0 0.00001,0 0.00001,0l-2.06149,-2.06149l0.02534,-0.10133l-0.00001,-0.00001c0,0 0.00001,0 0.00001,0l0,0c0,0 0,0 0,0c0.11959,0.00583 0.2957,-0.11605 0.40972,-0.17129c0.07425,-0.03599 0.12036,-0.0228 0.14773,-0.10743c0.2501,-0.03624 0.58227,-0.31851 0.78548,-0.30405l0.02534,-0.02534l0.20271,-0.17737l0.17737,0c0.04055,-0.11605 0.08944,-0.09984 0.20271,-0.10134l4.38353,4.38353l0,-0.00001l-4.38353,-4.38353c0.0403,-0.11503 0.07425,-0.08337 0.17028,-0.1381l4.67132,4.67132c0,0 0.00001,0 0.00001,0l-4.67132,-4.67132l0.49283,-0.25263c0.0413,-0.01496 0.07957,-0.01318 0.12239,-0.01469l0,-0.07601c0,0 0.00001,0.00001 0.00001,0.00001l0.12441,-0.02559l0.44469,-0.22348l0.03902,-0.05498l4.53493,4.53493l0.00001,0l-4.53493,-4.53493l0.38008,-0.10134c0.04383,-0.12492 0.0717,-0.07373 0.168,-0.12593l0.09478,-0.0631l0.10793,-0.03827c0,0 0.00001,0.00001 0.00001,0.00001c0.11046,-0.06004 0.0413,-0.0745 0.23741,-0.07678l4.3003,4.3003c0,0 0,0 0,-0.00001l-4.30031,-4.30031c0.04408,-0.12214 0.28228,-0.19662 0.40542,-0.20271l0.17737,-0.17737l4.20896,4.20896l0.00001,0l-4.20896,-4.20896l0.58279,-0.20271c0.05067,-0.12618 0.06994,-0.07247 0.168,-0.12593c0.11074,-0.06004 0.04155,-0.0745 0.23742,-0.07678c0.04383,-0.12492 0.0717,-0.07373 0.168,-0.12593c0.11074,-0.05979 0.04105,-0.0745 0.23742,-0.07678l0.02534,-0.10134c0.11959,0.00584 0.29571,-0.11605 0.40973,-0.17129c0.07425,-0.03599 0.12036,-0.0228 0.14773,-0.10742l-0.00001,-0.00001c0.25972,-0.03776 0.56505,-0.31977 0.78548,-0.30405l3.62055,3.62055c0,0 0,0 0.00001,0l-3.62056,-3.62056l0.02534,-0.02534c0,0 0.00001,0.00001 0.00001,0.00001l0.2027,-0.17737l3.59827,3.59827c0,0 0,0 0,-0.00001l-3.59828,-3.59828l0.17737,0c0.04055,-0.11605 0.08944,-0.09984 0.20271,-0.10134c0.0403,-0.11478 0.07398,-0.08362 0.17028,-0.1381c0,0 3.49251,3.49251 3.49251,3.49251c0,0 0,0 0,-0.00001l-3.49251,-3.49251l0.22448,-0.09934l0,0c0.14645,-0.07854 0.2212,-0.16216 0.39071,-0.168l3.35433,3.35433c0,0 0.00001,0 0.00001,0l-3.35432,-3.35432l0,-0.07601l0.12442,-0.02559l0.44469,-0.22348l0.03902,-0.05498l0.38008,-0.10134c0,0 3.14849,3.14849 3.14849,3.14849c0,0 0,0 0.00001,0l-3.1485,-3.1485c0.04383,-0.12492 0.0717,-0.07373 0.168,-0.12593l0.00001,0.00001l0.09477,-0.0631l0.10793,-0.03827c0.11047,-0.06004 0.0413,-0.0745 0.23742,-0.07678c0.04004,-0.11099 0.09425,-0.09856 0.20271,-0.10134l2.98232,2.98232l0,-0.00001l-2.98232,-2.98232c0.04004,-0.11099 0.09425,-0.09856 0.20271,-0.10134l0.17737,-0.17737l0.58279,-0.20271l2.76185,2.76185c0,0 0,-0.00001 0,-0.00001l-2.76184,-2.76184c0.05067,-0.12618 0.06994,-0.07247 0.168,-0.12593c0.11074,-0.06004 0.04155,-0.0745 0.23742,-0.07678c0.04055,-0.11605 0.08944,-0.09984 0.20271,-0.10134c0,0 2.66877,2.66877 2.66877,2.66877c0,0 0,0 0.00001,0l-2.66877,-2.66877c0.04055,-0.11605 0.08944,-0.09984 0.20271,-0.10134l0.02534,-0.10133l-0.00001,-0.00001c0,0 0.00001,0 0.00001,0l0,0c0,0 0,0 0,0c0.11959,0.00583 0.2957,-0.11605 0.40972,-0.17129c0.07425,-0.03599 0.12036,-0.0228 0.14773,-0.10743c0.25972,-0.03776 0.56505,-0.31977 0.78548,-0.30405l2.34607,2.34607c0,0 0,0 0.00001,0l-2.34608,-2.34608c0.0603,-0.17256 0.12999,-0.02889 0.22805,-0.20271l0.17737,0c0.04055,-0.11605 0.08944,-0.09984 0.20271,-0.10134c0.0403,-0.11478 0.07398,-0.08362 0.17028,-0.1381c0.13505,-0.07653 0.10668,-0.04283 0.20271,-0.08766c0.15607,-0.07297 0.2283,-0.16241 0.41251,-0.17965l5.35898,5.35898c0,0 0.00001,-0.00001 0.00001,-0.00001l-5.35898,-5.35898l0,-0.07601l0.12442,-0.02559l0.00001,0.00001l0.44468,-0.22348l4.96076,4.96076l0,-0.00001l-4.96076,-4.96076l0.03902,-0.05498l0.20271,-0.02534c0.02509,-0.09375 0.09222,-0.075 0.17737,-0.07601l0,0c0.03977,-0.11351 0.0532,-0.07424 0.14695,-0.11554l0.09603,-0.0636l4.50048,4.50048c0,0 0,-0.00001 0,-0.00001c0,0 -4.50048,-4.50048 -4.50048,-4.50048c0.10337,-0.05829 0.10643,0.00203 0.18775,-0.12492l0.17737,0c0,0 4.23204,4.23204 4.23204,4.23204c0,0 0,-0.00001 0,-0.00001l-4.23203,-4.23203c0.04004,-0.11099 0.09425,-0.09856 0.20271,-0.10134c0.04004,-0.11099 0.09425,-0.09856 0.20271,-0.10134c0,0 3.96655,3.96655 3.96655,3.96655c0,0 0,0 0,-0.00001c0,0 -3.96656,-3.96656 -3.96656,-3.96656l0.17737,-0.17737l0.58279,-0.20271l3.44835,3.44835c0,0 0,-0.00001 0,-0.00001l-3.44834,-3.44834c0.06969,-0.17331 0.13151,-0.03142 0.22805,-0.2027l-0.00001,-0.00001l0.17737,0l3.1416,3.1416c0,0 0,-0.00001 0,-0.00001c0,0 -3.14159,-3.14159 -3.14159,-3.14159c0.04055,-0.11605 0.08944,-0.09984 0.20271,-0.10134l3.01883,3.01883c0,0 0,-0.00001 0,-0.00001l-3.01883,-3.01883c0.04055,-0.11605 0.08944,-0.09984 0.20271,-0.10134l0.02534,-0.10133l-0.00001,-0.00001c0,0 0.00001,0 0.00001,0l0,0c0,0 0,0 0,0c0.11959,0.00583 0.2957,-0.11605 0.40972,-0.17129c0.07425,-0.03599 0.12036,-0.0228 0.14773,-0.10743l0.14773,-0.03827c0.18725,-0.07044 0.44621,-0.27948 0.63777,-0.26581c0.04383,-0.12492 0.0717,-0.07373 0.168,-0.12593c0,0 0.00001,0.00001 0.00001,0.00001c0.11073,-0.05979 0.04105,-0.0745 0.23741,-0.07678l1.6458,1.6458c0,0 0,-0.00001 0,-0.00001l-1.64581,-1.64581c0.04055,-0.11605 0.08944,-0.09984 0.20271,-0.10134c0.0403,-0.11478 0.07398,-0.08362 0.17028,-0.1381c0.13505,-0.07653 0.10693,-0.04308 0.20271,-0.08766l1.25335,1.25335c0,0 0,0 0,-0.00001c0,0 -1.25335,-1.25335 -1.25335,-1.25335c0.15735,-0.07348 0.22526,-0.16216 0.41251,-0.17965l0.96254,0.96254l0,-0.00001c0,0 -0.96253,-0.96253 -0.96253,-0.96253c0.0408,-0.1125 0.07576,-0.07906 0.17003,-0.12415c0.11352,-0.05423 0.37831,-0.16064 0.4381,-0.25591l0.20271,-0.02534c0.02509,-0.09375 0.09222,-0.075 0.17737,-0.07601l0,0c0.04764,-0.1357 0.19113,-0.11695 0.24303,-0.06505l0.0008,0.0008c-0.00026,-0.00027 -0.00053,-0.00054 -0.0008,-0.00081l11.09415,11.09415c-0.08345,9.99683 -7.152,18.32806 -16.5637,20.35173z" fill="url(#color-1)" stroke-width="1" stroke-miterlimit="10" font-family="sans-serif" font-weight="normal" font-size="12"></path><path d="M33.92018,13.10685c0.0484,0.08818 0.00101,0.27543 0,0.37222c-0.13277,0.12923 -0.05169,0.18472 -0.09401,0.32839c-0.02509,0.08539 -0.07095,0.10034 -0.08514,0.20473c-0.01774,0.13125 0.02787,0.21994 -0.10465,0.30305l0,0.35474c-0.11048,0.11098 -0.07449,0.1875 -0.10287,0.32864c-0.02711,0.13404 -0.09679,0.15583 -0.09983,0.45685c-0.11732,0.11884 -0.05828,0.187 -0.10287,0.33041l-0.06715,0.17636l-0.02356,0.17636c-0.02179,0.07019 -0.06259,0.10591 -0.0783,0.18066l-0.03218,0.30178l-0.05068,-0.02534l-0.02534,0.02534c0.03269,0.3109 -0.0446,0.31293 -0.08666,0.43303c-0.0261,0.075 -0.00532,0.17712 -0.02255,0.2511c-0.01748,0.07576 -0.05752,0.11174 -0.0788,0.17737c-0.01951,0.0598 -0.02078,0.23641 -0.0147,0.30406l-0.05068,0.02534c-0.08362,0.19764 -0.03117,0.18244 -0.05752,0.29975l-0.08007,0.18193c-0.04434,0.15862 0.03269,0.12821 -0.09046,0.32915l0.05068,-0.02534c-0.10009,0.20676 -0.04333,0.18624 -0.08944,0.35246c-0.04764,0.17205 -0.09705,0.22247 -0.08792,0.43303l-0.07602,-0.02534c0,0.07855 0.00405,0.23995 -0.0147,0.3109c-0.02204,0.08336 -0.05752,0.09882 -0.07703,0.19789c-0.0228,0.1158 0.01546,0.22754 -0.11098,0.2767c0,0.07804 0.00557,0.23286 -0.01394,0.30178c-0.02407,0.08564 -0.06917,0.10363 -0.08387,0.20524c-0.01748,0.12264 0.0375,0.22703 -0.1087,0.27847l0,0.30305c-0.02382,0.0821 -0.07044,0.10262 -0.0897,0.18066l-0.01571,0.22475c-0.01799,0.07449 -0.05752,0.09781 -0.0788,0.15735c-0.02737,0.07627 -0.00481,0.20347 -0.02204,0.26909c-0.01571,0.05955 -0.04688,0.07247 -0.06943,0.11605c-0.07272,0.14164 0.05473,0.27264 -0.12593,0.34536l-0.01292,0.34739l-0.06563,0.14291l-0.02762,0.21512l-0.06385,0.15659l-0.02306,0.21031l-0.0783,0.19435l-0.02306,0.21107l-0.07804,0.1946l-0.01292,0.15102l-0.02002,0.15304l-0.07602,-0.02534l-0.02534,0.40541l-0.07602,0l-0.02585,0.36513l-0.07551,0.04029l-0.02534,0.40541c-0.17357,0.06309 0.03497,0.30558 -0.18345,0.38008c0.00608,0.07221 0.01242,0.26327 0,0.3223c-0.02661,0.06512 -0.06968,0.09325 -0.08843,0.18446c-0.02737,0.13581 0.03623,0.21715 -0.10819,0.30406l0,0.38008c-0.11732,0.1125 -0.06715,0.14266 -0.09907,0.27974l-0.06487,0.1761l-0.03167,0.20524l-0.07602,0.22551l-0.02356,0.20423l-0.0712,0.15507l-0.02711,0.22348l-0.07551,0.18193l-0.03775,0.32509c-0.11048,0.04282 -0.06335,0.20854 -0.09223,0.30305c-0.02179,0.07019 -0.06284,0.10617 -0.0783,0.18066l-0.02103,0.22475c-0.04586,0.16343 -0.09071,0.10591 -0.1125,0.4571c-0.11858,0.1201 -0.05448,0.16419 -0.08286,0.30381c-0.01799,0.08742 -0.06031,0.11352 -0.08159,0.18193l-0.0185,0.22374l-0.06943,0.20271c-0.02686,0.09933 -0.00836,0.23691 -0.10819,0.30001c-0.10997,0.06157 -0.23362,0.0038 -0.34891,0c-0.08032,-0.07526 -0.21715,-0.08919 -0.3294,-0.0973c-0.06841,-0.10211 -0.18776,-0.07779 -0.30406,-0.10135c-0.0565,-0.15532 -0.21082,0.01647 -0.27872,-0.17737l-0.30406,0c-0.0108,-0.0172 -0.02178,-0.03137 -0.03296,-0.04305c0,0 -0.01772,0.01772 -0.01772,0.01772l0,-0.02534l0.01003,0c-0.09245,-0.08679 -0.19878,-0.01513 -0.33233,-0.08742c-0.187,-0.10135 -0.13328,-0.03446 -0.25338,-0.07855l-0.1348,-0.07272l-0.14874,-0.02509l-0.32737,-0.10794l-0.10997,-0.04688l-0.17078,-0.03775c-0.12669,-0.0446 -0.10085,-0.09046 -0.33168,-0.07576c-0.16343,-0.19156 -0.35448,-0.03294 -0.40541,-0.20271l-0.30406,-0.02534c-0.10515,-0.15735 -0.23362,0.00329 -0.30406,-0.17737l-0.27872,0c-0.13404,-0.2093 -0.25718,0.00329 -0.3294,-0.20271c-0.12289,0 -0.25516,0.0337 -0.30406,-0.10135c-0.3783,0 -0.19967,-0.02078 -0.43075,-0.08311l-0.17002,-0.03091l-0.12416,-0.06233l-0.13683,-0.02965l-0.15178,-0.05574l-0.15102,-0.03699l-0.18066,-0.07449l-0.22577,-0.03218c-0.0375,-0.10363 -0.2098,-0.0821 -0.30406,-0.10135c-0.03674,-0.10135 -0.22475,-0.07602 -0.3294,-0.10135l0.02534,-0.07602c-0.28455,0.03167 -0.32661,-0.05194 -0.43303,-0.08742l-0.17281,-0.03598c-0.10896,-0.03978 -0.11352,-0.09882 -0.33168,-0.07931l-0.02534,-0.10135l-0.30406,0c-0.08412,-0.1495 -0.12973,-0.06715 -0.2468,-0.11605c-0.07678,-0.03218 -0.12973,-0.14088 -0.15862,-0.21335c0.08134,-0.04713 0.32028,-0.32458 0.38236,-0.40871c0.05726,-0.07779 0.10237,-0.1756 0.20043,-0.19941l0.10135,-0.22805l0.10135,0l0.22805,-0.38008l0.05068,0.02534c0.0821,-0.24654 0.21816,-0.19992 0.22805,-0.40541l0.10135,-0.10135l0.38008,-0.3294l0.02534,-0.17737c0.12238,-0.03193 0.15482,-0.12036 0.20271,-0.22805l0.05068,0.02534c0.03801,-0.08666 0.03623,-0.09578 0.12669,-0.12669c0.00785,-0.11326 0.01242,-0.14468 0.12669,-0.17737l0.27872,-0.43075l0.07602,0.02534l0.12669,-0.27872c0.07069,-0.02407 0.07779,-0.07044 0.12948,-0.12213c0.10642,-0.10743 0.31394,-0.34612 0.35195,-0.48599l0.10135,0l0.10135,-0.12669l-0.02534,-0.05068l0.07602,-0.10135l0.07602,-0.02534l-0.02534,-0.05068c0.09451,-0.07576 0.14215,-0.10921 0.17737,-0.22805c0.12492,-0.06436 0.18446,-0.14747 0.22805,-0.27872c0.07982,-0.01647 0.25338,-0.24933 0.27872,-0.3294c0.13683,-0.06943 0.41074,-0.44368 0.48143,-0.58278l0.10135,0c0.01546,-0.23742 0.23843,-0.29899 0.30406,-0.50677l0.10135,0c0.02711,-0.07779 0.02356,-0.07424 0.10135,-0.10135l0,-0.15203c0.15026,-0.0712 0.30406,-0.31496 0.41479,-0.44925c0.09831,-0.11934 0.14848,-0.12847 0.19333,-0.28556l0.17737,-0.10135l0,-0.10135l0.10135,0l0.02534,-0.17737l0.10135,-0.10135c0.07373,-0.02509 0.07906,-0.07449 0.12923,-0.131c0.09375,-0.10515 0.23539,-0.20119 0.25085,-0.35043l0.38008,-0.3294c0.00659,-0.0783 -0.00405,-0.10541 0.07602,-0.12669l0.07602,-0.10135c-0.10921,0.00735 -0.13075,0.02787 -0.17737,0.12669c-0.11656,0.03345 -0.45913,0.37982 -0.53211,0.48143c-0.07044,0.00507 -0.08184,0.00735 -0.10135,0.07602l-0.15203,0.02534l0,0.10135l-0.10135,0c-0.05068,0.15684 -0.37856,0.38768 -0.50677,0.53211l-0.07602,-0.02534c-0.03649,0.11174 -0.09249,0.1457 -0.20271,0.17737l0,0.10135l-0.10135,0c-0.04586,0.1419 -0.33953,0.38793 -0.48143,0.43075l-0.22805,0.27872c-0.07551,0.02052 -0.15456,0.07602 -0.17737,0.15203c-0.09882,0.05194 -0.32788,0.23514 -0.38008,0.3294c-0.23185,0.06993 -0.51918,0.57417 -0.81083,0.60812l0.02534,0.07602l-0.3294,0.20271l0,0.10135l-0.10135,0c-0.04054,0.12543 -0.13328,0.18522 -0.25338,0.22805l0.05068,0.05068l-0.15203,0.02534l-0.02534,0.10135l-0.10135,0c-0.03699,0.11326 -0.29038,0.35905 -0.40541,0.38008c-0.03041,0.08666 -0.03699,0.08564 -0.12669,0.10135c-0.0001,0.00866 -0.00099,0.01711 -0.00261,0.02534c0,0 -0.02273,0 -0.02273,0l0.01798,0.01798c-0.02854,0.08536 -0.13448,0.14324 -0.22069,0.15939c-0.0413,0.10541 -0.15684,0.17686 -0.23843,0.25566l-0.2843,0.25972c-0.05665,0.05271 -0.09694,0.09623 -0.13607,0.13385l0,-0.01577l-0.02534,0l0.02045,0.02045c-0.0671,0.06378 -0.13266,0.11055 -0.27383,0.15692l0.02534,0.05068l-0.40541,0.30406c-0.05676,0.11225 -0.13151,0.19105 -0.25338,0.22805l0.02534,0.05068l-0.17737,0.05068l-0.30406,0.38008c-0.08134,0.0152 -0.08767,0.03041 -0.12669,0.10135l-0.22805,0.12669l0.02534,0.05068l-0.15203,0.02534c-0.03573,0.11048 -0.12036,0.17078 -0.20195,0.25034l-0.49233,0.42543c-0.0826,0.0674 -0.19739,0.1799 -0.29393,0.21107l0,0.10135c-0.14848,0.04688 -0.15887,0.14012 -0.27036,0.18294c-0.06867,0.02939 -0.23919,0.02382 -0.30811,0l-0.13328,-0.06765c-0.09654,-0.03243 -0.13353,0.00608 -0.20043,-0.08995l-0.05068,0.05068c-0.07627,-0.11402 -0.13936,-0.05321 -0.25338,-0.10034l-0.12669,-0.06233l-0.15203,-0.02838l-0.13911,-0.06056l-0.14088,-0.02432l-0.15279,-0.06791c-0.09527,-0.03345 -0.24097,0.00709 -0.2767,-0.11225c-0.13125,-0.00228 -0.22247,0.01394 -0.30406,-0.10135l-0.3294,-0.02534l0,-0.07956l-0.22272,0l-0.13733,-0.08311l-0.22272,-0.0147c-0.10338,-0.16115 -0.1576,-0.06765 -0.29595,-0.11352l-0.13936,-0.07627l-0.17179,-0.02711l-0.15735,-0.07348l-0.14772,-0.03193l-0.12669,-0.0598c-0.1495,-0.05828 -0.21487,0.0337 -0.27872,-0.12466c-0.23235,0.0375 -0.23742,-0.04764 -0.37881,-0.07728l-0.13227,-0.01672l-0.1984,-0.07678c-0.15456,-0.03953 -0.40643,-0.09502 -0.5468,-0.16495c-0.20017,-0.09958 -0.25794,-0.00025 -0.3147,-0.1457c-0.06284,0 -0.16926,0.00507 -0.22577,-0.0147c-0.06107,-0.02128 -0.0864,-0.06132 -0.15659,-0.0788l-0.14975,-0.01571c-0.07627,-0.01774 -0.11174,-0.05752 -0.17737,-0.0788l-0.17636,-0.02255c-0.07475,-0.01824 -0.09755,-0.05701 -0.15735,-0.0788l-0.14544,-0.02255c-0.1272,-0.03243 -0.10414,-0.11833 -0.38236,-0.0935c-0.09401,-0.14696 -0.12036,-0.07095 -0.24882,-0.11554l-0.11453,-0.06183l-0.21512,-0.03117l-0.15735,-0.06487c-0.11225,-0.0337 -0.29215,-0.01495 -0.26529,-0.18649c0.02559,-0.16293 0.15051,-0.07754 0.19029,-0.19891l0.58278,-0.20271c0.05068,-0.12619 0.06993,-0.07247 0.16799,-0.12593c0.11073,-0.06005 0.04155,-0.07449 0.23742,-0.07678c0.04384,-0.12492 0.07171,-0.07373 0.16799,-0.12593c0.11073,-0.0598 0.04105,-0.07449 0.23742,-0.07678l0.02534,-0.10135c0.1196,0.00583 0.2957,-0.11605 0.40972,-0.17129c0.07424,-0.03598 0.12036,-0.0228 0.14772,-0.10743c0.25009,-0.03623 0.58228,-0.3185 0.78549,-0.30406l0.02534,-0.02534l0.20271,-0.17737l0.17737,0c0.04054,-0.11605 0.08944,-0.09983 0.20271,-0.10135c0.04029,-0.11504 0.07424,-0.08336 0.17027,-0.13809l0.49283,-0.25262c0.0413,-0.01495 0.07956,-0.01318 0.12238,-0.0147l0,-0.07602l0.12441,-0.02559l0.44469,-0.22348l0.03902,-0.05498l0.38008,-0.10135c0.04384,-0.12492 0.07171,-0.07373 0.16799,-0.12593l0.09477,-0.06309l0.10794,-0.03826c0.11048,-0.06005 0.0413,-0.07449 0.23742,-0.07678c0.04409,-0.12213 0.28227,-0.19663 0.40541,-0.20271l0.17737,-0.17737l0.58278,-0.20271c0.05068,-0.12619 0.06993,-0.07247 0.16799,-0.12593c0.11073,-0.06005 0.04155,-0.07449 0.23742,-0.07678c0.04384,-0.12492 0.07171,-0.07373 0.16799,-0.12593c0.11073,-0.0598 0.04105,-0.07449 0.23742,-0.07678l0.02534,-0.10135c0.1196,0.00583 0.2957,-0.11605 0.40972,-0.17129c0.07424,-0.03598 0.12036,-0.0228 0.14772,-0.10743c0.25972,-0.03775 0.56505,-0.31977 0.78549,-0.30406l0.02534,-0.02534l0.20271,-0.17737l0.17737,0c0.04054,-0.11605 0.08944,-0.09983 0.20271,-0.10135c0.04029,-0.11478 0.07399,-0.08362 0.17027,-0.13809l0.2245,-0.09933c0.14646,-0.07855 0.2212,-0.16217 0.39072,-0.16799l0,-0.07602l0.12441,-0.02559l0.44469,-0.22348l0.03902,-0.05498l0.38008,-0.10135c0.04384,-0.12492 0.07171,-0.07373 0.16799,-0.12593l0.09477,-0.06309l0.10794,-0.03826c0.11048,-0.06005 0.0413,-0.07449 0.23742,-0.07678c0.04003,-0.11098 0.09426,-0.09857 0.20271,-0.10135c0.04003,-0.11098 0.09426,-0.09857 0.20271,-0.10135l0.17737,-0.17737l0.58278,-0.20271c0.05068,-0.12619 0.06993,-0.07247 0.16799,-0.12593c0.11073,-0.06005 0.04155,-0.07449 0.23742,-0.07678c0.04054,-0.11605 0.08944,-0.09983 0.20271,-0.10135c0.04054,-0.11605 0.08944,-0.09983 0.20271,-0.10135l0.02534,-0.10135c0.1196,0.00583 0.2957,-0.11605 0.40972,-0.17129c0.07424,-0.03598 0.12036,-0.0228 0.14772,-0.10743c0.25972,-0.03775 0.56505,-0.31977 0.78549,-0.30406c0.06031,-0.17255 0.12999,-0.02889 0.22805,-0.20271l0.17737,0c0.04054,-0.11605 0.08944,-0.09983 0.20271,-0.10135c0.04029,-0.11478 0.07399,-0.08362 0.17027,-0.13809c0.13505,-0.07652 0.10667,-0.04282 0.20271,-0.08767c0.15608,-0.07297 0.2283,-0.16242 0.41251,-0.17965l0,-0.07602l0.12441,-0.02559l0.44469,-0.22348l0.03902,-0.05498l0.20271,-0.02534c0.02509,-0.09375 0.09223,-0.075 0.17737,-0.07602c0.03978,-0.11352 0.05321,-0.07424 0.14696,-0.11554l0.09603,-0.0636c0.10338,-0.05828 0.10642,0.00203 0.18776,-0.12492l0.17737,0c0.04003,-0.11098 0.09426,-0.09857 0.20271,-0.10135c0.04003,-0.11098 0.09426,-0.09857 0.20271,-0.10135l0.17737,-0.17737l0.58278,-0.20271c0.06968,-0.17331 0.13151,-0.03142 0.22805,-0.20271l0.17737,0c0.04054,-0.11605 0.08944,-0.09983 0.20271,-0.10135c0.04054,-0.11605 0.08944,-0.09983 0.20271,-0.10135l0.02534,-0.10135c0.1196,0.00583 0.2957,-0.11605 0.40972,-0.17129c0.07424,-0.03598 0.12036,-0.0228 0.14772,-0.10743l0.14772,-0.03826c0.18725,-0.07044 0.44621,-0.27948 0.63777,-0.2658c0.04384,-0.12492 0.07171,-0.07373 0.16799,-0.12593c0.11073,-0.0598 0.04105,-0.07449 0.23742,-0.07678c0.04054,-0.11605 0.08944,-0.09983 0.20271,-0.10135c0.04029,-0.11478 0.07399,-0.08362 0.17027,-0.13809c0.13505,-0.07652 0.10693,-0.04308 0.20271,-0.08767c0.15735,-0.07348 0.22526,-0.16217 0.41251,-0.17965c0.04079,-0.1125 0.07576,-0.07906 0.17002,-0.12416c0.11352,-0.05422 0.3783,-0.16065 0.4381,-0.25592l0.20271,-0.02534c0.02509,-0.09375 0.09223,-0.075 0.17737,-0.07602c0.05397,-0.1538 0.23109,-0.10921 0.25845,-0.04282z M20.10138,32.58423l0,-0.4305c-0.0337,-0.14443 -0.09325,-0.10237 -0.09705,-0.30431l0,-0.3294c-0.00355,-0.18801 -0.05194,-0.17078 -0.08539,-0.3294l-0.02154,-0.48143c-0.01976,-0.12036 -0.08058,-0.15279 -0.0935,-0.30406c-0.01242,-0.14696 -0.03801,-0.35448 0.17281,-0.32585c0.08514,0.0114 0.09426,0.05194 0.16242,0.07297l0.32129,0.05017l-0.02534,0.05068l0.3294,0.02534c0.03547,0.09781 0.2321,0.08387 0.3294,0.10135l-0.02534,0.07602c0.36513,0.00101 0.32889,0.06461 0.4571,0.09375c0.05777,0.01318 0.10845,0.00203 0.17205,0.02585l0.13328,0.06892l0.20017,0.0261l0.18193,0.07728l0.24908,0.0375c0.05574,0.15355 0.25972,-0.0076 0.30406,0.17737l0.17737,0.02534l0,0.12669l-0.07602,0c-0.01875,0.19891 -0.22653,0.52628 -0.33953,0.69883c-0.06436,0.09831 -0.05422,0.17382 -0.16723,0.21335c-0.00862,0.09071 -0.00329,0.15279 -0.10135,0.17737l0,0.17737c-0.08767,0.075 -0.09223,0.08868 -0.10135,0.20271c-0.16546,0.0973 -0.23235,0.33928 -0.3223,0.49967c-0.07906,0.14088 -0.18396,0.23869 -0.18446,0.41251c-0.08463,0.05473 -0.15203,0.20625 -0.17737,0.30406l-0.10135,0l0,0.20271l-0.10135,0l0,0.17737l-0.10135,0.02534c-0.00355,0.09983 0.00709,0.15304 -0.10135,0.17737l-0.10135,0.3294c-0.0859,0.05397 -0.08488,0.08032 -0.10135,0.17737l-0.07602,0l-0.02534,0.20271c-0.08666,0.0527 -0.09375,0.08362 -0.12669,0.17737l-0.10135,0l-0.05068,-0.20271c-0.07906,-0.02255 -0.07728,-0.07526 -0.08691,-0.15203l-0.01571,-0.43075l-0.08362,-0.38033l-0.02002,-0.40516l-0.06563,-0.2098l-0.03218,-0.70238c-0.0935,-0.02686 -0.07551,-0.11909 -0.08032,-0.20271z M21.75268,33.26837l-0.02534,0.02534l0,-0.02534z M27.5045,19.66164l0.02534,0.02534l0,-0.02534z M33.02827,17.00111l-0.02534,0.02534l0,-0.02534z M15.6968,27.44053l-0.02534,0.02534l0,-0.02534z M21.42328,27.03512l0.02534,0.02534l0,-0.02534z M27.40314,19.763l0.02534,0.02534l0,-0.02534z M21.87937,24.55196l0.02534,0.02534l0,-0.02534z M14.42988,26.98444l0.02534,0.02534l0,-0.02534z M20.08034,26.0976l0.02534,0.02534l0,-0.02534z M21.85403,26.55369l-0.02534,0.02534l0,-0.02534z M32.47082,18.97751l0.02534,0.02534l0,-0.02534z M24.89464,30.27843l0.02534,0.02534l0,-0.02534z M26.46562,20.92856l0.02534,0.02534l0,-0.02534z M33.45902,15.05005l0.02534,0.02534l0,-0.02534z M21.93005,24.52662l0,0.02534l-0.00736,-0.00736c0.00196,-0.00586 0.00356,-0.01186 0.00475,-0.01798c0,0 0.00261,0 0.00261,0z M27.7072,31.19062c0,0 -0.01531,0 -0.01531,0c0.00257,0.00242 0.00514,0.00495 0.00769,0.00762c0,0 0.00762,-0.00762 0.00762,-0.00762z M21.0432,25.36278l-0.00489,-0.00489c0.00163,-0.00155 0.00326,-0.00311 0.00489,-0.00468z" fill="#ffffff" stroke="#000000" stroke-width="0" stroke-miterlimit="4" font-family="&quot;Open Sans&quot;, sans-serif" font-weight="400" font-size="14"></path></g></svg>